<svg xmlns="http://www.w3.org/2000/svg" width="180" height="27.11" viewBox="0 0 180 27.11"><title>logo</title><g id="レイヤー_2" data-name="レイヤー 2"><g id="レイヤー_1-2" data-name="レイヤー 1"><path d="M24.18,8.31a4.07,4.07,0,1,1-4.07-4.06,4.07,4.07,0,0,1,4.07,4.06" style="fill:#24a9e0"/><path d="M29.71,0H.41L0,1.68H28.6A5.36,5.36,0,0,1,33,3.36a8.24,8.24,0,0,1,1.63,5.45,24.8,24.8,0,0,1-1,6.82A18.3,18.3,0,0,1,31.2,21.1,9.71,9.71,0,0,1,28.07,24a8.25,8.25,0,0,1-3.79,1H20.87a1.72,1.72,0,0,1-1.18-.35c-.2-.16-.41-.53-.23-1.3s2.14-8.7,2.14-8.7H16.09l-3,12H24.73a17.89,17.89,0,0,0,6.67-1.18,13.65,13.65,0,0,0,4.87-3.18,15.28,15.28,0,0,0,3.12-5.15,17.76,17.76,0,0,0,1.23-6.46c0-3.37-.94-6-2.8-7.9S33.24,0,29.71,0"/><path d="M68.94,26.7h5.53S77.81,13,78.54,9.86H73c-.38,1.52-4.08,16.84-4.08,16.84"/><path d="M77.28.32a3.53,3.53,0,1,0,3.53,3.52A3.51,3.51,0,0,0,77.28.32"/><path d="M106.65,26.7h5.53S115.52,13,116.25,9.86h-5.52c-.38,1.52-4.08,16.84-4.08,16.84"/><path d="M115,.32a3.53,3.53,0,1,0,3.53,3.52A3.52,3.52,0,0,0,115,.32"/><path d="M168.14,26.7h5.52S177,13,177.74,9.86h-5.53c-.38,1.52-4.07,16.84-4.07,16.84"/><path d="M176.48.32A3.53,3.53,0,1,0,180,3.84,3.53,3.53,0,0,0,176.48.32"/><path d="M120.69,19.66c-.36,4.51,2.36,7.11,7.25,7.42a13.23,13.23,0,0,0,9.81-3.28l-.87-1.11A8.49,8.49,0,0,1,130.12,25c-3.22-.5-3.85-3.84-3.5-5.9.57-3.33,2.32-5.81,5.11-6.88a7.21,7.21,0,0,1,7.47,1.45l1.19-1.13a11.36,11.36,0,0,0-7.35-3c-7,0-12,5.19-12.35,10.12"/><path d="M59.89,11.11A8.65,8.65,0,0,0,52.16,10c-2.78.9-7.6,4.09-7.6,10.19a6.68,6.68,0,0,0,6.2,6.91,8.6,8.6,0,0,0,5.65-1.54l-.29,1.18h5.52S65,13,65.72,9.86H60.2l-.31,1.25M57.8,19.75a7.41,7.41,0,0,1-2.55,4.42,3.53,3.53,0,0,1-2.76.65c-1.5-.36-2.21-1.86-2.3-3.57-.11-2.14.65-6.12,2.87-8.17a5,5,0,0,1,6.47-.45Z"/><path d="M95.45,9.7a18.55,18.55,0,0,0-4.4,1.51l.32-1.35H85.85c-.39,1.52-4.08,16.84-4.08,16.84h5.52s1.44-5.91,2.64-10.86a5.1,5.1,0,0,1,2.14-3.12c1.34-.92,3.27-1.25,4.19-.67,1.18.73.51,2.55.11,4.2S93.83,26.7,93.83,26.7h5.52s2.46-10.17,2.79-11.52a4.44,4.44,0,0,0-.43-3.58c-1.21-1.84-3.24-2.42-6.26-1.9"/><path d="M156.93,9.7a18.77,18.77,0,0,0-4.41,1.51c1-4,1.81-7.48,2.08-8.62h-5.52c-.38,1.52-5.83,24.11-5.83,24.11h5.52s1.23-5.09,2.58-10.63a5.18,5.18,0,0,1,2.21-3.35c1.33-.92,3.26-1.25,4.19-.67,1.17.73.5,2.55.1,4.2s-2.54,10.45-2.54,10.45h5.52s2.47-10.17,2.79-11.52a4.48,4.48,0,0,0-.42-3.58C162,9.76,160,9.18,156.93,9.7"/></g></g></svg>